<?xml version="1.0" encoding="UTF-8"?>
<svg width="71px" height="70px" viewBox="0 0 71 70" version="1.1" xmlns="http://www.w3.org/2000/svg" xmlns:xlink="http://www.w3.org/1999/xlink">
    <title>Fill-1 Copy</title>
    <g id="Page-1" stroke="none" stroke-width="1" fill="none" fill-rule="evenodd">
        <path d="M0.610074627,34.888179 C0.610074627,15.6549521 16.3152028,0 35.6100746,0 C54.9049465,0 70.6100746,15.6549521 70.6100746,34.888179 C70.6100746,54.345048 54.9049465,70 35.6100746,70 C30.2254592,70 25.2895618,68.8817892 20.8023823,66.6453676 C23.045972,65.5271566 25.0652028,64.632588 27.0844335,63.7380194 C34.9369978,60.6070288 36.7318694,65.974441 44.1357158,52.3322685 C62.5331515,18.3386581 40.3216132,-1.11821087 32.9177669,12.5239617 C29.7767413,18.3386581 23.943408,25.7188499 24.6164848,32.8753994 C25.2895618,39.3610224 32.4690491,42.0447286 35.8344335,41.3738019 C39.4241772,40.7028755 45.2575106,41.3738019 34.7126387,50.7667733 C31.1228952,53.8977637 23.7190489,59.2651758 16.7639208,64.4089458 C7.11648489,58.370607 0.610074627,47.4121407 0.610074627,34.888179 Z" id="Fill-1-Copy" fill="#5E5E5E" fill-rule="nonzero"></path>
    </g>
</svg>