<?xml version="1.0" encoding="UTF-8"?>
<svg width="358px" height="358px" viewBox="0 0 358 358" version="1.1" xmlns="http://www.w3.org/2000/svg" xmlns:xlink="http://www.w3.org/1999/xlink">
    <title>Fill 1 Copy</title>
    <g id="Page-1" stroke="none" stroke-width="1" fill="none" fill-rule="evenodd">
        <path d="M198.569472,357.163731 C240.969993,283.982061 334.740378,244.435421 357.571429,159.022831 C312.520874,80.1333986 236.077626,53.8369211 159.634377,0.428571429 C107.449119,66.4755382 65.2524462,141.695695 0.428571429,197.957926 C37.9367254,211.00424 68.3101761,237.708415 96.8489889,266.247228 C98.8874755,243.00848 107.041422,223.439008 121.10698,208.965753 C121.10698,208.965753 157.188193,186.338552 177.573059,180.019243 C129.057078,162.488258 123.960861,175.534573 119.47619,165.749837 C130.687867,138.230267 130.687867,152.091977 148.015003,123.349315 C202.034899,114.176125 283.778213,126.610894 299.882257,145.161122 C307.424658,154.130463 291.728311,160.449772 273.58578,186.338552 C243.416177,191.23092 154.334312,232.816047 125.795499,244.435421 C123.757012,261.35486 123.145466,278.07045 123.757012,294.582192 C147.199609,319.24788 171.253751,342.894325 198.569472,357.163731 Z" id="Fill-1-Copy" fill="#7F7F7F"></path>
    </g>
</svg>