<?xml version="1.0" encoding="UTF-8"?>
<svg width="404px" height="129px" viewBox="0 0 404 129" version="1.1" xmlns="http://www.w3.org/2000/svg" xmlns:xlink="http://www.w3.org/1999/xlink">
    <title>hamed-blog-header copy 3</title>
    <g id="Page-1" stroke="none" stroke-width="1" fill="none" fill-rule="evenodd">
        <g id="hamed-blog-header-copy-3" transform="translate(0.610075, 0.000000)" fill-rule="nonzero">
            <g id="Group-2" transform="translate(0.000000, 15.000000)" fill="#FFFFFF">
                <path d="M155.413311,84.0760537 L155.413311,72.8977602 L165.418196,72.8977602 C172.660997,72.8977602 179.361611,71.7902811 185.520037,69.575323 C191.678464,67.3603648 199.852189,63.5825156 210.041213,58.2417754 L214.828827,55.6956085 C214.337789,55.5300042 213.734223,55.2919479 213.018127,54.9814398 C212.30203,54.6709316 211.064208,54.1430678 209.304657,53.3978482 C207.545107,52.6526286 205.601417,51.8453074 203.473589,50.9758846 C198.645055,48.9886324 195.023655,47.5706452 192.609388,46.7219229 C190.195121,45.8732006 188.333271,45.4488395 187.023839,45.4488395 C184.773252,45.4488395 182.553353,46.1112569 180.364145,47.4360917 C178.174937,48.7609264 176.282397,50.458371 174.686526,52.5284254 L173.029275,54.7019824 L163.760946,50.0443601 L164.68164,48.4297178 C167.341426,44.0826036 170.604778,40.6566637 174.471697,38.1518979 C178.338616,35.6471321 182.543123,34.3947492 187.085218,34.3947492 C191.340875,34.3947492 197.540222,36.3820014 205.683257,40.3565058 C212.107662,43.5029884 217.406773,45.8007487 221.58059,47.2497868 C225.754407,48.6988248 229.600866,49.506146 233.119967,49.6717504 L232.997207,60.2290276 C230.58294,60.5188352 227.667407,61.388258 224.250606,62.837296 C220.833805,64.2863341 215.913201,66.7289982 209.488796,70.1652885 C200.650124,74.8850124 192.957207,78.3834042 186.410042,80.660464 C179.862877,82.9375238 172.804216,84.0760537 165.234058,84.0760537 L155.413311,84.0760537 Z" id="Path"></path>
                <path d="M157.961071,84.0760537 L156.444547,84.0760537 C148.882151,84.0760537 143.210354,82.0962247 139.429155,78.1365667 C135.647957,74.1769088 133.757358,67.8476109 133.757358,59.1486732 L133.757358,0 L144.009056,0 L144.009056,59.2102223 C144.009056,64.2162148 145.030181,67.7655455 147.072433,69.8582144 C149.114685,71.9508835 152.238723,72.997218 156.444547,72.997218 L157.961071,72.997218 L157.961071,84.0760537 Z" id="Path"></path>
                <path d="M83.3899254,64.7016575 C89.0017397,70.9005524 94.3392925,74 99.4025837,74 C105.394145,74 108.389925,71.1841621 108.389925,65.5524861 C108.389925,61.5009208 107.35617,58.2292817 105.28866,55.737569 C103.221149,53.2458563 100.415242,52 96.870938,52 C91.0059592,52 86.5122882,56.2338858 83.3899254,64.7016575 Z M79.3693069,75.6680498 C74.1734306,81.6431535 68.4002346,84.6307054 62.0497192,84.6307054 L59.3899254,84.6307054 L59.3899254,73.4273858 L61.7404408,73.4273858 C63.5136366,73.4273858 65.1631213,73.0228216 66.6888945,72.2136929 C68.2146677,71.4045644 69.5858017,70.2427385 70.8022965,68.7282157 C72.0187914,67.2136929 73.0394099,65.7302905 73.8641521,64.2780083 C74.6888944,62.8257262 75.5548739,61.0829875 76.4620904,59.0497925 C81.9053893,47.0165975 88.9363171,41 97.5548738,41 C103.987863,41 109.235286,43.3858922 113.297142,48.1576763 C117.358998,52.9294605 119.389925,58.7178423 119.389925,65.5228216 C119.389925,72.0373445 117.822915,77.0788382 114.688894,80.6473028 C111.554874,84.2157676 107.03941,86 101.142503,86 C97.2249769,86 93.5239461,85.1493776 90.0394099,83.4481328 C86.5548738,81.746888 82.9981727,79.1535269 79.3693069,75.6680498 Z" id="Shape"></path>
                <path d="M0,71.0819526 C4.73912766,72.2425103 9.00842801,72.8227892 12.8079011,72.8227892 C26.9844294,72.8227892 34.0726938,69.3825646 34.0726938,62.5021155 C34.0726938,60.5954851 32.2138117,55.2071817 28.4960478,46.3372052 L21.142229,28.8044946 L31.0086025,24.2037124 L43.7552218,57.2174334 C46.0430765,63.1445671 48.2185813,67.2376054 50.2817359,69.4965479 C52.3448907,71.7554906 54.6838136,72.8849619 57.2985047,72.8849619 L59.8723413,72.8849619 L59.8723413,84.0760537 L57.2985047,84.0760537 C50.5575042,84.0760537 45.2055583,80.7187262 41.242667,74.004071 C35.6864484,80.6772777 26.5146021,84.013881 13.7271284,84.013881 C8.74287345,84.013881 4.16716398,83.4957749 0,82.4595627 L0,71.0819526 Z" id="Path"></path>
            </g>
            <path d="M274,64.2939298 C274,28.8498402 302.942308,0 338.5,0 C374.057692,0 403,28.8498402 403,64.2939298 C403,100.15016 374.057692,129 338.5,129 C328.576923,129 319.480769,126.939297 311.211538,122.817892 C315.346154,120.757189 319.067308,119.108626 322.788461,117.460064 C337.259616,111.690096 340.567308,121.58147 354.211539,96.4408948 C388.115385,33.7955272 347.182693,-2.06070289 333.538462,23.0798723 C327.75,33.7955272 317,47.3961662 318.240384,60.5846647 C319.480769,72.5367412 332.711539,77.4824283 338.913461,76.2460064 C345.528846,75.0095849 356.278846,76.2460064 336.846154,93.5559108 C330.230769,99.3258787 316.586538,109.217253 303.769231,118.696486 C285.990385,107.56869 274,87.3738022 274,64.2939298 Z" id="Fill-1" fill="#5E5E5E"></path>
        </g>
    </g>
</svg>