
<svg width="650px" height="653px" viewBox="0 0 650 653" version="1.1" xmlns="http://www.w3.org/2000/svg" xmlns:xlink="http://www.w3.org/1999/xlink">
    <g id="Page-1" stroke="none" stroke-width="1" fill="none" fill-rule="evenodd">
        <path d="M0,325 C0,145.833333 145.833333,0 325,0 C504.166667,0 650,145.833333 650,325 C650,506.25 504.166667,652.083332 325,652.083332 C275,652.083332 229.166667,641.666666 187.5,620.833334 C208.333333,610.416666 227.083333,602.083333 245.833332,593.750001 C318.750001,564.583333 335.416666,614.583333 404.166668,487.5 C575,170.833333 368.750001,-10.4166667 300,116.666667 C270.833333,170.833333 216.666667,239.583333 222.916666,306.25 C229.166667,366.666666 295.833334,391.666667 327.083332,385.416666 C360.416667,379.166667 414.583334,385.416666 316.666666,472.916667 C283.333334,502.083333 214.583333,552.083333 150,600 C60.4166667,543.749999 0,441.666667 0,325 Z" id="Fill-1" fill="#888888" fill-rule="nonzero"></path>
    </g>
</svg>