<?xml version="1.0" encoding="UTF-8"?>
<svg width="130px" height="129px" viewBox="0 0 130 129" version="1.1" xmlns="http://www.w3.org/2000/svg" xmlns:xlink="http://www.w3.org/1999/xlink">
    <title>Fill-1 Copy</title>
    <g id="Page-1" stroke="none" stroke-width="1" fill="none" fill-rule="evenodd">
        <path d="M0.610074627,64.2939298 C0.610074627,28.8498402 29.5523823,0 65.1100746,0 C100.667767,0 129.610075,28.8498402 129.610075,64.2939298 C129.610075,100.15016 100.667767,129 65.1100746,129 C55.1869977,129 46.0908439,126.939297 37.8216131,122.817892 C41.9562284,120.757189 45.6773823,119.108626 49.3985359,117.460064 C63.8696902,111.690096 67.1773822,121.58147 80.8216134,96.4408948 C114.725459,33.7955272 73.7927671,-2.06070289 60.1485362,23.0798723 C54.3600746,33.7955272 43.6100746,47.3961662 44.8504591,60.5846647 C46.0908439,72.5367412 59.3216132,77.4824283 65.5235359,76.2460064 C72.1389208,75.0095849 82.8889209,76.2460064 63.4562283,93.5559108 C56.840844,99.3258787 43.196613,109.217253 30.3793054,118.696486 C12.6004592,107.56869 0.610074627,87.3738022 0.610074627,64.2939298 Z" id="Fill-1-Copy" fill="#5E5E5E" fill-rule="nonzero"></path>
    </g>
</svg>